<?xml version="1.0" encoding="UTF-8" standalone="no"?>
<!-- Created with Inkscape (http://www.inkscape.org/) -->

<svg
   xmlns:dc="http://purl.org/dc/elements/1.1/"
   xmlns:cc="http://creativecommons.org/ns#"
   xmlns:rdf="http://www.w3.org/1999/02/22-rdf-syntax-ns#"
   xmlns:svg="http://www.w3.org/2000/svg"
   xmlns="http://www.w3.org/2000/svg"
   xmlns:sodipodi="http://sodipodi.sourceforge.net/DTD/sodipodi-0.dtd"
   xmlns:inkscape="http://www.inkscape.org/namespaces/inkscape"
   version="1.1"
   width="100%"
   height="100%"
   viewBox="0 0 298.99569 193.86736"
   id="Layer_1"
   xml:space="preserve"
   inkscape:version="0.48.5 r10040"
   sodipodi:docname="logo-sii.svg"><sodipodi:namedview
     pagecolor="#ffffff"
     bordercolor="#666666"
     borderopacity="1"
     objecttolerance="10"
     gridtolerance="10"
     guidetolerance="10"
     inkscape:pageopacity="0"
     inkscape:pageshadow="2"
     inkscape:window-width="640"
     inkscape:window-height="480"
     id="namedview15"
     showgrid="false"
     fit-margin-top="0"
     fit-margin-left="0"
     fit-margin-right="0"
     fit-margin-bottom="0"
     inkscape:zoom="0.81944444"
     inkscape:cx="149.53416"
     inkscape:cy="49.816049"
     inkscape:window-x="0"
     inkscape:window-y="32"
     inkscape:window-maximized="0"
     inkscape:current-layer="Layer_1" /><metadata
     id="metadata31"><rdf:RDF><cc:Work
         rdf:about=""><dc:format>image/svg+xml</dc:format><dc:type
           rdf:resource="http://purl.org/dc/dcmitype/StillImage" /><dc:title /></cc:Work></rdf:RDF></metadata><defs
     id="defs29" /><style
     type="text/css"
     id="style3" /><path
     d="m 228.53416,144.35131 -1.4,0.3 c 6,-17.1 27.9,-80.300001 27.7,-80.600001 -0.2,-0.3 -18.5,-57.4000002 -18.5,-57.4000002 0,0 -9.5,-10.1 -47.2,-0.5 -37.4,9.5000002 -69.5,30.4000002 -69.5,30.4000002 0,0 -3,1.8 -7.6,4.8 l -5.1,-4.6 c 0,0 -10.300004,5.1 -21.200004,13 -7,5.1 -11.4,10.3 -12.7,11.8 -0.9,0.6 -1.4,0.9 -1.4,0.9 l -24.4,32.7 -5.5,41.200001 15.5,-12.9 -1.9,18 c 0,0 -10.9,49.8 4,51.6 1.8,0.2 3.9,0.4 6.1,0.5 l 0,0 c 0,0 6.8,0.4 11.6,0.3 4.9,-0.1 10.1,-0.4 10.1,-0.4 l 0,-0.1 c 15.500004,-1 35.400004,-3.8 58.900004,-10.3 19.5,-5.3 38,-13.1 52.3,-19.9 l 0.1,0.2 c 0,0 3.8,-1.5 14.5,-7.3 10.6,-5.7 13.7,-7.8 17,-9.8 3.3,-1.8 -1.4,-1.9 -1.4,-1.9"
     id="path5"
     style="fill:#ffffff"
     inkscape:connector-curvature="0" /><path
     d="m 77.434156,184.55131 c -19.9,-0.6 -35.3,-6.8 -42.8,-19.1 -12.5,-20.5 0,-52.8 29,-84.000001 1,-7.2 4.5,-13.8 9.5,-19.9 -52,31.2 -81.9999995,71.300001 -70.7999995,100.400001 7.4,19.2 31.2999995,29.9 63.7999995,31.6 4.3,-3 8,-6 11.3,-9"
     id="path7"
     style="fill:#0061aa"
     inkscape:connector-curvature="0" /><path
     d="m 146.23416,170.15131 c -16.4,6.5 -32.2,10.9 -46.700004,13 -3.8,3.5 -8.1,7 -12.9,10.3 18.900004,-1 39.700004,-4.6 61.300004,-10.9 -0.6,-3.8 -1.2,-8 -1.7,-12.4"
     id="path9"
     style="fill:#0061aa"
     inkscape:connector-curvature="0" /><path
     d="m 199.23416,142.15131 c -3.3,2.2 -6.7,4.4 -10.2,6.5 -6.9,4.2 -13.9,8 -20.8,11.5 -0.6,6.4 -1.4,12.1 -2.3,16.7 3.3,-1.1 6.5,-2.3 9.8,-3.6 8.6,-3.3 16.9,-6.9 24.8,-10.7 -0.5,-6.5 -1,-13.4 -1.3,-20.4"
     id="path11"
     style="fill:#0061aa"
     inkscape:connector-curvature="0" /><path
     d="m 296.63416,48.551309 c -3.2,-8.3 -9.4,-14.9 -18.1,-20 6.1,25.3 -15.2,61.9 -53.4,94.200001 0,9.5 -0.4,18.8 -0.9,27.2 53,-31.3 83.8,-72.000001 72.4,-101.400001"
     id="path13"
     style="fill:#0061aa"
     inkscape:connector-curvature="0" /><path
     d="m 163.33416,24.651309 c 13.8,-3.4 27.2,-5.7 39.9,-6.9 v -0.6 l 15.2,-9.1000002 v 8.7000002 c 24.8,-0.6 45.7,3.3 60.1,11.7 -0.8,-3.3 -2.1,-6.4 -3.8,-9.3 -14.9,-24.3000002 -60.5,-25.0000002 -111.4,-4.8 v 10.3 z"
     id="path15"
     style="fill:#accdec"
     inkscape:connector-curvature="0" /><path
     d="m 148.13416,21.051309 c -9.2,4.3 -18.5,9.3 -27.8,15 -2.8,1.7 -5.6,3.5 -8.3,5.2 l 0.4,0.4 c 3.5,-1.5 7.1,-3 10.7,-4.4 8.4,-3.2 16.7,-6 24.9,-8.5 v -7.7 z"
     id="path17"
     style="fill:#accdec"
     inkscape:connector-curvature="0" /><path
     d="m 78.534156,117.45131 c -12.5,-13.5 -16.4,-25.400001 -14.9,-35.900001 -29,31.200001 -41.6,63.400001 -29,84.000001 7.5,12.3 22.9,18.5 42.8,19.1 24.800004,-22.9 21.7,-45.1 1.1,-67.2"
     id="path19"
     style="fill:#7aaedd"
     inkscape:connector-curvature="0" /><path
     d="m 278.53416,28.451309 c -14.4,-8.4 -35.3,-12.4 -60.1,-11.7 v 17.9 l -15.2,9.1 v -26 c -12.7,1.2 -26.1,3.5 -39.9,6.9 v 10.1 l -15.2,9.1 v -15 c -8.2,2.5 -16.5,5.3 -24.9,8.5 -3.6,1.4 -7.2,2.9 -10.7,4.4 l 4.9,4.2 c -25.000004,14.3 -39.900004,32 -10.8,62.300001 24.1,25.1 18,52 -7.000004,75 14.400004,-2.1 30.300004,-6.5 46.700004,-13 -4.1,-35.4 -3.5,-85.200001 1.8,-109.300001 l 15.2,-9.1 c 7.6,30.4 8,77.800001 4.9,108.500001 6.9,-3.5 13.9,-7.3 20.8,-11.5 3.5,-2.1 6.9,-4.3 10.2,-6.5 -1.4,-30.3 -0.1,-63.100001 4,-81.300001 l 15.2,-9.1 c 4.9,19.6 6.8,46.3 6.7,71.000001 38.2,-32.500001 59.5,-69.200001 53.4,-94.500001"
     id="path21"
     style="fill:#7aaedd"
     inkscape:connector-curvature="0" /></svg>